<?xml version="1.0" standalone="no"?>
<!DOCTYPE svg PUBLIC "-//W3C//DTD SVG 1.1//EN" "http://www.w3.org/Graphics/SVG/1.1/DTD/svg11.dtd">
<svg width="100%" height="100%" viewBox="0 0 140 46" version="1.1" xmlns="http://www.w3.org/2000/svg" xmlns:xlink="http://www.w3.org/1999/xlink" xml:space="preserve" style="fill-rule:evenodd;clip-rule:evenodd;stroke-linejoin:round;stroke-miterlimit:1.41421;">
    <g transform="matrix(1,0,0,1,-52,-18)">
        <g>
            <g transform="matrix(0.529228,0,0,0.570787,-171.461,-165.097)">
                <path d="M546.079,396.794C545.891,395.294 545.727,393.114 545.586,390.255C545.446,387.395 545.305,384.161 545.164,380.551C545.024,376.942 544.907,373.169 544.813,369.231C544.719,365.294 544.625,361.544 544.532,357.981C544.438,354.419 544.321,351.208 544.18,348.348C544.039,345.489 543.829,343.309 543.547,341.809C543.547,341.715 543.524,341.481 543.477,341.106C543.43,340.731 543.383,340.309 543.336,339.84C543.289,339.372 543.266,338.973 543.266,338.645C543.266,338.317 543.266,338.059 543.266,337.872C544.672,336.747 545.868,336.372 546.852,336.747C547.836,337.122 548.657,337.942 549.313,339.208C549.969,340.473 550.438,342.044 550.719,343.919C551,345.794 551.211,347.669 551.352,349.544C551.493,351.419 551.563,353.13 551.563,354.676C551.563,356.223 551.563,357.325 551.563,357.981C551.75,356.387 552.032,354.512 552.407,352.356C552.782,350.2 553.344,347.997 554.094,345.747C554.844,343.497 555.758,341.27 556.836,339.067C557.914,336.864 559.25,334.919 560.844,333.231C562.438,331.544 564.243,330.231 566.258,329.294C568.274,328.356 570.594,327.981 573.219,328.169C577.344,328.356 580.743,329.481 583.414,331.544C586.086,333.606 588.196,336.372 589.743,339.84C591.289,343.309 592.414,347.294 593.118,351.794C593.821,356.294 594.289,361.075 594.524,366.137C594.758,371.2 594.829,376.333 594.735,381.536C594.641,386.739 594.594,391.731 594.594,396.512C593.75,396.7 592.907,397.005 592.063,397.426C591.219,397.848 590.516,398.036 589.954,397.989C589.391,397.942 588.993,397.52 588.758,396.723C588.524,395.926 588.594,394.356 588.969,392.012C589.063,390.325 589.227,387.723 589.461,384.208C589.696,380.692 589.789,376.778 589.743,372.465C589.696,368.153 589.438,363.7 588.969,359.106C588.5,354.512 587.633,350.317 586.368,346.52C585.102,342.723 583.474,335.035 580.954,337.239C577.549,340.215 574.006,341.529 571.813,333.653C567.969,335.247 564.472,338.091 562.18,342.653C560.864,345.271 558.602,350.711 555.993,358.122C553.965,363.881 553.321,370.426 552.618,377.317C551.914,384.208 551.516,390.934 551.422,397.497C551.235,397.403 550.883,397.356 550.368,397.356C549.852,397.356 549.289,397.333 548.68,397.286C548.071,397.239 547.508,397.169 546.993,397.075C546.477,396.981 546.172,396.887 546.079,396.794Z" style="fill:rgb(2,179,228);fill-rule:nonzero;"/>
            </g>
            <g transform="matrix(0.529228,0,0,0.570787,-171.461,-165.097)">
                <path d="M601.907,364.45C601.907,361.637 602.516,358.52 603.735,355.098C604.954,351.676 606.618,348.489 608.727,345.536C610.836,342.583 613.227,340.098 615.899,338.083C618.571,336.067 621.36,335.059 624.266,335.059C625.86,335.059 627.43,335.387 628.977,336.044C630.524,336.7 632.024,337.567 633.477,338.645C634.93,339.723 636.243,340.942 637.414,342.301C638.586,343.661 639.5,345.09 640.157,346.59C640.813,348.09 641.164,349.544 641.211,350.95C641.258,352.356 640.86,353.575 640.016,354.606L610.344,360.09C609.969,360.184 609.641,360.63 609.36,361.426C609.079,362.223 608.844,363.231 608.657,364.45C608.469,365.669 608.305,367.005 608.164,368.458C608.024,369.911 607.907,371.317 607.813,372.676C607.719,374.036 607.672,375.255 607.672,376.333C607.672,377.411 607.672,378.231 607.672,378.794C607.672,381.419 608.305,383.551 609.571,385.192C610.836,386.833 612.454,388.075 614.422,388.919C616.391,389.762 618.618,390.325 621.102,390.606C623.586,390.887 626.047,391.028 628.485,391.028C630.922,391.028 633.219,390.934 635.375,390.747C637.532,390.559 639.313,390.465 640.719,390.465C640.719,390.84 640.579,391.262 640.297,391.731C640.016,392.2 639.688,392.645 639.313,393.067C638.938,393.489 638.563,393.864 638.188,394.192C637.813,394.52 637.579,394.731 637.485,394.825C636.735,395.012 635.586,395.27 634.039,395.598C632.493,395.926 630.852,396.231 629.118,396.512C627.383,396.794 625.766,397.028 624.266,397.215C622.766,397.403 621.735,397.497 621.172,397.497C618.266,398.059 615.735,398.012 613.579,397.356C611.422,396.7 609.594,395.575 608.094,393.981C606.594,392.387 605.375,390.442 604.438,388.145C603.5,385.848 602.797,383.387 602.329,380.762C601.86,378.137 601.602,375.419 601.555,372.606C601.508,369.794 601.625,367.075 601.907,364.45ZM622.297,340.403C621.454,340.403 620.352,340.848 618.993,341.739C617.633,342.63 616.368,343.755 615.196,345.114C614.024,346.473 613.039,347.926 612.243,349.473C611.446,351.02 611.188,352.356 611.469,353.481C613.907,353.762 616.438,353.715 619.063,353.34C621.688,352.965 624.079,352.38 626.235,351.583C628.391,350.786 630.172,349.848 631.579,348.77C632.985,347.692 633.664,346.59 633.618,345.465C633.571,344.34 632.202,340.951 630.946,342.442C628.857,344.921 625.381,349.871 622.297,340.403Z" style="fill:rgb(2,179,228);fill-rule:nonzero;"/>
            </g>
            <g transform="matrix(0.529228,0,0,0.570787,-171.461,-165.097)">
                <path d="M647.469,342.653C648.594,342.184 649.579,342.09 650.422,342.372C651.266,342.653 651.969,343.169 652.532,343.919C653.094,344.669 653.516,345.536 653.797,346.52C654.079,347.505 654.313,348.465 654.5,349.403C655.719,347.34 657.477,345.676 659.774,344.411C662.071,343.145 664.532,342.301 667.157,341.88C669.782,341.458 672.407,341.364 675.032,341.598C677.657,341.833 679.883,342.395 681.711,343.286C683.539,344.176 684.829,345.395 685.579,346.942C686.329,348.489 686.141,350.294 685.016,352.356C682.579,350.95 677.996,346.254 677.352,348.981C675.733,355.831 673.272,356.576 669.547,348.137C668.519,345.807 664.672,349.38 662.516,351.02C660.36,352.661 658.579,355.262 657.172,358.825C655.766,362.387 654.899,367.098 654.571,372.958C654.243,378.817 654.641,386.106 655.766,394.825L650.422,394.825C650.422,394.825 650.352,394.051 650.211,392.505C650.071,390.958 649.93,388.919 649.789,386.387C649.649,383.856 649.461,381.044 649.227,377.95C648.993,374.856 648.782,371.715 648.594,368.528C648.407,365.34 648.243,362.27 648.102,359.317C647.961,356.364 647.797,353.809 647.61,351.653C647.61,351.372 647.586,350.809 647.539,349.965C647.493,349.122 647.469,348.208 647.469,347.223L647.469,342.653Z" style="fill:rgb(2,179,228);fill-rule:nonzero;"/>
            </g>
            <g transform="matrix(0.154617,-3.90048e-17,5.01581e-17,0.210921,52.9796,5.31264)">
                <path d="M348.466,241.422C347.842,236.314 326.175,115.916 309.046,71.189C308.444,69.617 307.091,68.453 305.446,68.092C305.092,68.014 36.955,67.85 36.279,67.98C34.584,68.308 33.262,69.576 32.645,71.189C15.516,115.916 0.661,236.433 0.037,241.541C-0.286,244.185 1.519,246.617 4.143,247.073C4.143,247.073 155.268,273.759 158.015,273.759C159.828,273.759 161.531,272.77 162.413,271.135L170.844,255.523L179.275,271.135C180.158,272.771 181.859,273.759 183.673,273.759C186.781,273.759 337.545,247.073 337.545,247.073C340.17,246.617 348.789,244.066 348.466,241.422ZM309.552,109.379C312.042,120.213 314.421,132.045 316.637,144.043C307.714,146.334 286.201,150.414 270.913,141.534C263.711,137.351 258.696,130.621 255.94,121.51C285.679,117.828 301.732,112.69 309.552,109.379ZM307.175,99.492C300.54,102.531 281.482,109.402 238.974,113.244L237.062,95.501C274.997,91.689 293.409,84.978 301.779,80.596C303.609,86.111 305.413,92.506 307.175,99.492ZM39.911,80.596C43.916,82.693 54.107,79.756 59.864,87.914C66.169,96.849 72.827,97.885 80.171,92.263C85.871,87.898 95.356,94.569 104.629,95.501L102.718,113.244C60.211,109.403 41.151,102.531 34.515,99.492C36.277,92.506 38.081,86.111 39.911,80.596ZM32.138,109.379C39.958,112.69 56.01,117.828 85.749,121.51C82.993,130.622 77.979,137.352 70.776,141.534C55.471,150.422 33.954,146.33 25.052,144.043C27.269,132.045 29.649,120.214 32.138,109.379ZM165.845,243.736L155.325,263.216L10.56,238.039C13.253,226.953 18.908,192.642 23.27,153.928C28.673,155.289 37.421,157.013 47.112,157.013C56.529,157.013 66.825,155.382 75.762,150.203C85.753,144.412 92.474,135.142 95.816,122.641C114.29,124.52 137.3,125.824 165.845,125.96L165.845,243.736ZM165.845,115.96C145.293,115.859 127.704,115.146 112.689,114.055L114.591,96.396C129.049,97.547 145.992,98.29 165.845,98.397L165.845,115.96ZM61.939,77.977L279.958,77.977C261.563,83.018 228.431,88.411 170.845,88.411C113.562,88.41 80.424,83.027 61.939,77.977ZM175.845,115.96L175.845,98.397C182.01,98.364 189.227,94.485 193.512,98.12C200.525,104.07 206.682,104.644 211.767,97.404C214.874,92.98 222.271,96.78 227.099,96.396L229.001,114.055C213.986,115.146 196.397,115.859 175.845,115.96ZM187.626,125.832L187.626,188.676C187.626,192.958 186.503,196.03 184.192,198.07C181.903,200.09 178.605,200.899 175.844,201.167L175.844,125.962C179.886,125.941 183.804,125.897 187.626,125.832ZM186.365,263.216L175.845,243.736L175.845,211.186C180.154,210.898 186.103,209.684 190.747,205.622C195.311,201.629 197.626,195.928 197.626,188.676L197.626,125.608C216.394,125.081 232.355,124.016 245.874,122.641C249.216,135.143 255.937,144.413 265.928,150.203C274.866,155.383 285.16,157.013 294.578,157.013C304.272,157.013 313.017,155.288 318.419,153.927C324.781,190.006 329.521,225.525 331.13,238.039L186.365,263.216Z" style="fill:rgb(2,179,228);fill-rule:nonzero;stroke-width:5.41px;stroke:rgb(2,179,228);"/>
            </g>
        </g>
    </g>
</svg>
